<svg width="200" height="60" viewBox="0 0 200 60" fill="none" xmlns="http://www.w3.org/2000/svg">
  <!-- 한양대학교 로고 SVG -->
  <rect width="200" height="60" fill="white"/>
  
  <!-- H 문자 -->
  <rect x="20" y="15" width="8" height="30" fill="#2c5aa0"/>
  <rect x="20" y="27" width="20" height="6" fill="#2c5aa0"/>
  <rect x="32" y="15" width="8" height="30" fill="#2c5aa0"/>
  
  <!-- A 문자 -->
  <polygon points="50,45 58,15 66,15 74,45 68,45 66,35 60,35 58,45" fill="#2c5aa0"/>
  <rect x="62" y="27" width="4" height="8" fill="white"/>
  
  <!-- N 문자 -->
  <rect x="80" y="15" width="8" height="30" fill="#2c5aa0"/>
  <polygon points="88,15 88,45 96,15 104,15 104,45 96,45 96,25 88,25" fill="#2c5aa0"/>
  
  <!-- Y 문자 -->
  <polygon points="110,15 118,15 125,30 132,15 140,15 130,35 130,45 122,45 122,35" fill="#2c5aa0"/>
  
  <!-- A 문자 -->
  <polygon points="150,45 158,15 166,15 174,45 168,45 166,35 160,35 158,45" fill="#2c5aa0"/>
  <rect x="162" y="27" width="4" height="8" fill="white"/>
  
  <!-- N 문자 -->
  <rect x="180" y="15" width="8" height="30" fill="#2c5aa0"/>
  <polygon points="188,15 188,45 196,15 204,15 204,45 196,45 196,25 188,25" fill="#2c5aa0"/>
  
  <!-- 한양대학교 텍스트 -->
  <text x="100" y="55" text-anchor="middle" font-family="Arial, sans-serif" font-size="12" font-weight="bold" fill="#2c5aa0">한양대학교</text>
</svg>
